<?xml version="1.0" standalone="no"?>
<!DOCTYPE svg PUBLIC "-//W3C//DTD SVG 20010904//EN"
 "http://www.w3.org/TR/2001/REC-SVG-20010904/DTD/svg10.dtd">
<svg version="1.0" xmlns="http://www.w3.org/2000/svg"
 width="755.000000pt" height="496.000000pt" viewBox="0 0 755.000000 496.000000"
 preserveAspectRatio="xMidYMid meet">
<metadata>
Created by potrace 1.16, written by Peter Selinger 2001-2019
</metadata>
<g transform="translate(0.000000,496.000000) scale(0.100000,-0.100000)"
fill="#000000" stroke="none">
<path d="M1575 3073 c-11 -3 -28 -12 -39 -22 -46 -41 -46 -40 -46 -581 0 -564
0 -562 62 -600 32 -19 49 -20 551 -20 568 0 571 0 601 59 14 26 16 98 16 556
0 458 -2 530 -16 556 -30 59 -33 59 -596 58 -282 -1 -522 -4 -533 -6z m668
-247 c62 -30 92 -59 84 -80 -5 -12 -16 -9 -57 19 -108 73 -230 73 -326 0 -37
-28 -64 -32 -64 -10 0 18 72 68 130 89 65 24 164 16 233 -18z m-62 -348 c36
-20 79 -83 79 -116 0 -7 15 -12 36 -12 28 0 44 -8 70 -34 19 -19 34 -43 34
-55 0 -16 6 -21 25 -21 35 0 75 -42 75 -79 0 -89 -9 -91 -394 -91 l-324 0 -30
25 c-55 46 -50 130 8 160 17 9 33 31 44 59 21 54 66 86 122 86 33 1 42 6 59
33 40 65 126 84 196 45z"/>
<path d="M2950 2570 l0 -290 35 0 35 0 0 126 c0 125 0 126 29 155 39 39 100
41 136 4 24 -23 25 -29 25 -155 l0 -130 31 0 30 0 -3 155 c-3 152 -3 155 -30
181 -48 49 -166 43 -203 -10 -14 -18 -15 -6 -15 117 l0 137 -35 0 -35 0 0
-290z"/>
<path d="M3830 2570 l0 -290 30 0 30 0 0 290 0 290 -30 0 -30 0 0 -290z"/>
<path d="M4790 2723 l0 -136 -22 20 c-36 33 -63 43 -113 43 -117 0 -196 -92
-182 -213 17 -140 166 -210 281 -132 l36 24 0 -24 c0 -21 5 -25 30 -25 l30 0
0 290 0 290 -30 0 -30 0 0 -137z m-53 -150 c98 -65 47 -242 -70 -243 -118 0
-172 161 -79 237 34 28 110 31 149 6z"/>
<path d="M5750 2570 l0 -290 30 0 30 0 0 95 c0 52 3 95 8 94 4 0 45 -43 91
-95 82 -92 84 -94 128 -94 l45 0 -93 101 -93 101 84 78 85 79 -45 1 c-43 0
-49 -3 -120 -75 -41 -41 -78 -75 -82 -75 -5 0 -8 83 -8 185 l0 185 -30 0 -30
0 0 -290z"/>
<path d="M3475 2636 c-38 -17 -80 -62 -94 -99 -15 -39 -14 -121 3 -160 41
-100 176 -134 284 -71 48 29 51 36 18 57 -21 14 -25 14 -43 -5 -30 -29 -107
-36 -149 -13 -27 15 -64 66 -64 89 0 3 68 6 151 6 l152 0 -6 51 c-7 59 -30
103 -70 132 -35 27 -138 34 -182 13z m156 -65 c17 -17 29 -40 29 -55 l0 -26
-115 0 -115 0 15 37 c9 20 17 38 18 38 1 1 13 9 27 18 13 10 44 17 68 17 35 0
49 -6 73 -29z"/>
<path d="M4116 2625 c-44 -30 -46 -30 -46 -5 0 16 -7 20 -30 20 l-30 0 0 -290
0 -290 30 0 30 0 0 135 c0 74 3 135 6 135 3 0 19 -11 35 -24 78 -66 225 -26
265 71 21 49 17 130 -7 180 -43 89 -172 123 -253 68z m164 -62 c73 -66 49
-197 -40 -224 -102 -31 -188 57 -160 162 24 86 135 120 200 62z"/>
<path d="M5055 2636 c-38 -17 -80 -62 -94 -99 -15 -39 -14 -121 3 -160 41
-100 176 -134 284 -71 48 29 51 36 18 57 -21 14 -25 14 -43 -5 -30 -29 -107
-36 -149 -13 -27 15 -64 66 -64 89 0 3 68 6 151 6 l152 0 -6 51 c-7 59 -30
103 -70 132 -35 27 -138 34 -182 13z m156 -65 c17 -17 29 -40 29 -55 l0 -26
-115 0 -115 0 15 37 c9 20 17 38 18 38 1 1 13 9 27 18 13 10 44 17 68 17 35 0
49 -6 73 -29z"/>
<path d="M5454 2641 c-35 -15 -64 -60 -64 -101 0 -49 28 -74 115 -103 38 -12
73 -30 79 -40 16 -25 -4 -50 -49 -62 -31 -8 -44 -6 -77 13 -40 21 -41 21 -64
3 l-24 -19 30 -25 c57 -48 168 -47 224 3 26 24 31 35 31 75 0 58 -30 88 -105
104 -28 6 -60 16 -71 21 -21 12 -25 50 -7 68 17 17 79 15 105 -3 19 -13 23
-13 45 5 l23 19 -22 22 c-18 18 -36 24 -85 26 -35 1 -73 -1 -84 -6z"/>
</g>
</svg>
